<?xml version="1.0" standalone="yes"?>
<svg xmlns="http://www.w3.org/2000/svg" width="530" height="471">
<path style="fill:none; stroke:none;" d="M0 0L0 471L530 471L530 0L0 0z"/>
<path style="fill:#66c045; stroke:none;" d="M251 31L251 32L256 32L251 31z"/>
<path style="fill:#fafcfb; stroke:none;" d="M256.004 31.4684C250.348 32.078 244.914 40.2383 252.148 43.3966C258.403 46.1275 278.324 47.424 284.981 45.6821C291.509 43.9738 290.404 36.4329 284.956 34.1482C277.408 30.9829 264.058 30.6002 256.004 31.4684z"/>
<path style="fill:#66c045; stroke:none;" d="M260 31L260 32L274 32L260 31M228 32L228 33L235 38C235.605 33.5365 231.851 32.293 228 32M249.333 32.6667L249.667 33.3333L249.333 32.6667M276 32L276 33L281 33L276 32M223 33L223 34L226 34L223 33z"/>
<path style="fill:#fafcfb; stroke:none;" d="M200 40L202 53C211.442 51.169 225.318 50.1071 233.682 45.2979C237.56 43.0679 235.848 36.1131 232.606 34.0285C225.658 29.5618 207.437 38.2951 200 40z"/>
<path style="fill:#66c045; stroke:none;" d="M283 33L283 34L286 34L283 33M220.667 34.3333L221.333 34.6667L220.667 34.3333M248 34L248 42L249 42L248 34M286.667 34.3333L287.333 34.6667L286.667 34.3333M215 35L215 36L218 36L215 35M288 35L289 36L288 35M211.667 36.3333L212.333 36.6667L211.667 36.3333M289.333 36.6667L289.667 37.3333L289.333 36.6667M207 37L207 38L210 38L207 37M301 37L302 38L301 37z"/>
<path style="fill:#fafcfb; stroke:none;" d="M302 37C297.705 51.5293 308.751 52.243 320 56C323.227 57.0779 329.38 60.7558 332.737 59.5826C344.212 55.5722 333.351 46.59 328 44.5764C324.693 43.3321 321.382 42.2947 318 41.2801C312.698 39.6895 307.326 38.4972 302 37z"/>
<path style="fill:#66c045; stroke:none;" d="M303 37L303 38L306 38L303 37M204.667 38.3333L205.333 38.6667L204.667 38.3333M307.667 38.3333L308.333 38.6667L307.667 38.3333M200 39L200 40L203 40L200 39M312.667 39.3333L313.333 39.6667L312.667 39.3333M199 40L199 44L200 44L199 40M236 40L236 44L237 44L236 40M290.333 40.6667L290.667 41.3333L290.333 40.6667M315 40L315 41L318 41L315 40M318 41L318 42L321 42L318 41M249 42L250 43L249 42M300 42L302 51L300 42M322.667 42.3333L323.333 42.6667L322.667 42.3333M250 43L251 44L250 43M289 43L290 44L289 43M325.667 43.3333L326.333 43.6667L325.667 43.3333M200 44L200 47L201 47L200 44M252 44L252 45L257 45L252 44M258 44L258 45L267 45L258 44M288 44L289 45L288 44M327.667 44.3333L328.333 44.6667L327.667 44.3333M180 47L180 48L186 46L180 47z"/>
<path style="fill:#fafcfb; stroke:none;" d="M188 45C182.495 46.3076 177.886 48.9417 173 51.7191C169.355 53.791 165.696 55.8042 162 57.7809C157.074 60.4154 144.732 71.9641 158.09 74.0941C161.694 74.6687 166.879 70.3195 170 68.7531C181.776 62.8425 193.614 59.6675 188 45z"/>
<path style="fill:#66c045; stroke:none;" d="M188 45L189 46L188 45M234.667 45.3333L235.333 45.6667L234.667 45.3333M272 45L272 46L276 46L272 45M287 45L288 46L287 45M330.667 45.3333L331.333 45.6667L330.667 45.3333M229 46L229 47L232 47L229 46M278 46L278 47L286 47L278 46M333 46L334 47L333 46M226 47L226 48L229 48L226 47M335.667 47.3333L336.333 47.6667L335.667 47.3333M178 48L179 49L178 48M189.333 48.6667L189.667 49.3333L189.333 48.6667M201 48L201 53L202 53L201 48M222 48L222 49L226 49L222 48M337 48L338 49L337 48M176 49L177 50L176 49M216 49L216 50L220 50L216 49M338 49L338 52L339 52L338 49M174.667 50.3333L175.333 50.6667L174.667 50.3333M213 50L213 51L216 51L213 50M172.667 51.3333L173.333 51.6667L172.667 51.3333M190.333 51.6667L190.667 52.3333L190.333 51.6667M209 51L209 52L212 52L209 51M305.667 51.3333L306.333 51.6667L305.667 51.3333M171 52L172 53L171 52M204 52L204 53L208 53L204 52M309.667 52.3333L310.333 52.6667L309.667 52.3333M169 53L170 54L169 53M202.667 53.3333L203.333 53.6667L202.667 53.3333M311.667 53.3333L312.333 53.6667L311.667 53.3333M337 53L338 54L337 53M167.667 54.3333L168.333 54.6667L167.667 54.3333M191 54L190 58L191 54M314.667 54.3333L315.333 54.6667L314.667 54.3333M165.667 55.3333L166.333 55.6667L165.667 55.3333M317.667 55.3333L318.333 55.6667L317.667 55.3333M336 55L337 56L336 55M163.667 56.3333L164.333 56.6667L163.667 56.3333M320.667 56.3333L321.333 56.6667L320.667 56.3333M335.333 56.6667L335.667 57.3333L335.333 56.6667M347 61L355 58C351.285 55.7239 349.164 57.6827 347 61M161.667 57.3333L162.333 57.6667L161.667 57.3333M323.667 57.3333L324.333 57.6667L323.667 57.3333z"/>
<path style="fill:#fafcfb; stroke:none;" d="M344 65L344 66C350.911 71.3262 363.429 83.2051 372 84.6536C376.342 85.3873 381.714 82.8341 386 82C381.661 72.7719 370.44 67.0343 362 62.0008C359.229 60.3482 355.453 57.3268 352.004 57.9437C348.481 58.5737 346.093 62.4388 344 65z"/>
<path style="fill:#66c045; stroke:none;" d="M160 58L161 59L160 58M188.667 58.3333L189.333 58.6667L188.667 58.3333M326.667 58.3333L327.333 58.6667L326.667 58.3333M356 58L357 59L356 58M158 59L159 60L158 59M186.667 59.3333L187.333 59.6667L186.667 59.3333M328.667 59.3333L329.333 59.6667L328.667 59.3333M334 59L335 60L334 59M357 59L358 60L357 59M156.667 60.3333L157.333 60.6667L156.667 60.3333M185 60L186 61L185 60M330.667 60.3333L331.333 60.6667L330.667 60.3333M333 60L334 61L333 60M359 60L360 61L359 60M155 61L156 62L155 61M183 61L184 62L183 61M361 61L362 62L361 61M154 62L155 63L154 62M181.667 62.3333L182.333 62.6667L181.667 62.3333M362 62L363 63L362 62M179.667 63.3333L180.333 63.6667L179.667 63.3333M345 63L346 64L345 63M364 63L365 64L364 63M151 64L152 65L151 64M178 64L179 65L178 64M344 64L345 65L344 64M366 64L367 65L366 64M150.333 65.6667L150.667 66.3333L150.333 65.6667M176 65L177 66L176 65M343 65L344 66L343 65M367 65L368 66L367 65M483 65L483 66L488 66L483 65z"/>
<path style="fill:#fbf72f; stroke:none;" d="M502 73C503.867 61.6569 484.002 65.6529 478 66.5903C451.002 70.8069 423.83 73.8345 397 79.1998C298.693 98.8587 200.57 120.753 103 143.884C88.349 147.358 73.7287 151.25 59 154.335C53.7155 155.442 45.7643 154.695 41.6373 158.653C36.0873 163.975 34.193 175.011 31.3997 182C29.3486 187.132 23.5875 197.276 24.929 202.851C26.4432 209.143 46.6215 201.346 51 200.35C79.0091 193.978 107.447 186.931 135 178.799C225.048 152.222 317.107 132.36 407 105.28C430.841 98.0981 454.628 90.9672 478 82.3187C483.236 80.3812 497.126 71.2256 502 73z"/>
<path style="fill:#66c045; stroke:none;" d="M496.667 65.3333L497.333 65.6667L496.667 65.3333M174.667 66.3333L175.333 66.6667L174.667 66.3333M344 66L345 67L344 66M369 66L370 67L369 66M475 66L475 67L479 67L475 66M499 66L500 67L499 66M151 67L152 68L151 67M172.667 67.3333L173.333 67.6667L172.667 67.3333M345 67L346 68L345 67M371 67L372 68L371 67M468 67L468 68L473 68L468 67M170.667 68.3333L171.333 68.6667L170.667 68.3333M347 68L348 69L347 68M372.667 68.3333L373.333 68.6667L372.667 68.3333M460 68L460 69L464 69L460 68M501 68L502 69L501 68M152 69L153 70L152 69M168.667 69.3333L169.333 69.6667L168.667 69.3333M348 69L349 70L348 69M374 69L375 70L374 69M453 69L453 70L457 70L453 69M502.333 69.6667L502.667 70.3333L502.333 69.6667M153 70L154 71L153 70M166.667 70.3333L167.333 70.6667L166.667 70.3333M350 70L351 71L350 70M375 70L376 71L375 70M445 70L445 71L449 71L445 70M450 70L451 71L450 70M154.333 71.6667L154.667 72.3333L154.333 71.6667M164.667 71.3333L165.333 71.6667L164.667 71.3333M376 71L377 72L376 71M440 71L441 72L440 71z"/>
<path style="fill:#fafcfb; stroke:none;" d="M501 71C488.354 79.9962 471.595 84.4684 457 89.3333C429.551 98.483 401.791 106.32 374 114.297C293.769 137.326 212.65 157.704 132 179.36C107.729 185.877 83.2986 191.86 59 198.265C49.1388 200.865 38.4035 202.006 29 206L29 207C43.9168 216.87 66.5287 224.267 78 238C168.035 203.079 259.324 170.884 350 137.47C390.179 122.664 430.331 99.8745 472 90L472 91L447 105.431L386 141.939L232 238.961L175 275.921L145.939 295.21L136.975 322L119 379L172 381L195.79 382.179L207.011 398L231 437C238.3 433.514 242.576 424.172 247.576 418C261.973 400.226 274.626 380.924 288.757 362.91C341.397 295.804 392.017 226.302 441.729 157C457.128 135.534 472.467 113.862 488.665 93C492.652 87.8651 505.365 77.8494 501 71z"/>
<path style="fill:#66c045; stroke:none;" d="M161 74L164 72L161 74M377 72L378 73L377 72M434 72L434 73L438 73L434 72M503 72L503 75L504 75L503 72M140 73C131.983 79.5061 124.078 86.1784 117.289 94C113.297 98.6 109.343 103.228 116 107L116 106L112 104L130 83.1698L140 73M155 73L156 74L155 73M354.667 73.3333L355.333 73.6667L354.667 73.3333M378 73L379 74L378 73M427 73L427 74L432 74L427 73z"/>
<path style="fill:#fafcfb; stroke:none;" d="M112 104L124 109L140.004 91.0146L146.694 82.9105L142 74C131.012 78.2558 115.791 92.7582 112 104z"/>
<path style="fill:#66c045; stroke:none;" d="M142.333 74.6667L142.667 75.3333L142.333 74.6667M156 74L159 76L159 75L156 74M160 74L161 75L160 74M356 74L357 75L356 74M379.667 74.3333L380.333 74.6667L379.667 74.3333M422 74L422 75L426 75L422 74M357 75L358 76L357 75M381 75L382 76L381 75M416 75L416 76L420 76L416 75z"/>
<path style="fill:#fbf72f; stroke:none;" d="M503 75C476.039 104.274 454.811 139.025 431.265 171C388.355 229.273 345.256 287.566 301.235 345C285.816 365.117 270.548 385.494 255.64 406C248.419 415.932 240.985 429.798 231 437C233.281 448.296 259.878 449.953 268.896 444.972C273.019 442.695 275.243 436.848 277.612 433C282.875 424.454 288.836 416.451 294.19 408C328.441 353.933 364.545 300.728 400.897 248C421.277 218.439 442.324 189.417 459.86 158C470.954 138.125 482.872 118.759 494.15 99C497.729 92.7305 506.04 82.4705 503 75z"/>
<path style="fill:#66c045; stroke:none;" d="M143 76L144 77L143 76M359 76L360 77L359 76M382 76L383 77L382 76M408 76L408 77L413 77L408 76M144 77L145 78L144 77M361 77L362 78L361 77M383 77L384 78L383 77M404.667 77.3333L405.333 77.6667L404.667 77.3333M145.333 78.6667L145.667 79.3333L145.333 78.6667M362 78L363 79L362 78M384 78L385 79L384 78M399.667 78.3333L400.333 78.6667L399.667 78.3333M385 79L386 80L385 79M392 79L392 80L396 80L392 79M146 80L147 81L146 80M364 80L365 81L364 80M386 80L386 81L391 81L386 80M365 81L366 82L365 81M503.333 81.6667L503.667 82.3333L503.333 81.6667M147 82L148 83L147 82M367 82L368 83L367 82M368 83L364 85L364 86C366.475 85.8817 369.782 85.8938 368 83M502.333 83.6667L502.667 84.3333L502.333 83.6667M147 84L148 85L147 84M146 85L147 86L146 85M501.333 85.6667L501.667 86.3333L501.333 85.6667M144.667 86.3333L145.333 86.6667L144.667 86.3333M361 86L361 87L364 87L361 86M143 87L144 88L143 87z"/>
<path style="fill:#62a5a3; stroke:none;" d="M356 87L357 88L356 87z"/>
<path style="fill:#66c045; stroke:none;" d="M357 87L357 88L360 88L357 87M500.333 87.6667L500.667 88.3333L500.333 87.6667M142 88L143 89L142 88M350 88L350 89L355 89L350 88M141 89L142 90L141 89M347.667 89.3333L348.333 89.6667L347.667 89.3333M499.333 89.6667L499.667 90.3333L499.333 89.6667M140 90L141 91L140 90M342 90L342 91L345 91L342 90z"/>
<path style="fill:#62a5a3; stroke:none;" d="M440 101L440 102L450 100L445 105L445 106L472 91C463.547 88.5074 448.194 98.2108 440 101z"/>
<path style="fill:#66c045; stroke:none;" d="M139 91L140 92L139 91M338 91L338 92L341 92L338 91M498.333 91.6667L498.667 92.3333L498.333 91.6667M138 92L139 93L138 92M332 92L332 93L336 93L332 92M137 93L138 94L137 93M328 93L328 94L331 94L328 93M497 93L498 94L497 93M136 94L137 95L136 94M322 94L322 95L326 95L322 94M496.333 94.6667L496.667 95.3333L496.333 94.6667M135 95L136 96L135 95M318.667 95.3333L319.333 95.6667L318.667 95.3333M134 96L135 97L134 96M314.667 96.3333L315.333 96.6667L314.667 96.3333M495.333 96.6667L495.667 97.3333L495.333 96.6667M309 97L309 98L312 98L309 97M133 98L134 99L133 98M303 98L303 99L306 99L303 98M494 98L495 99L494 98M131.667 99.3333L132.333 99.6667L131.667 99.3333M300.667 99.3333L301.333 99.6667L300.667 99.3333z"/>
<path style="fill:#62a5a3; stroke:none;" d="M131 100L132 101L131 100z"/>
<path style="fill:#66c045; stroke:none;" d="M295.667 100.333L296.333 100.667L295.667 100.333M449 100L450 101L449 100M493 100L494 101L493 100M130 101L131 102L130 101M290 101L290 102L293 102L290 101M492.333 101.667L492.667 102.333L492.333 101.667M129 102L130 103L129 102M286 102L286 103L289 103L286 102z"/>
<path style="fill:#62a5a3; stroke:none;" d="M437.667 102.333L438.333 102.667L437.667 102.333z"/>
<path style="fill:#66c045; stroke:none;" d="M128 103L129 104L128 103M281 103L281 104L284 104L281 103z"/>
<path style="fill:#62a5a3; stroke:none;" d="M435.667 103.333L436.333 103.667L435.667 103.333z"/>
<path style="fill:#66c045; stroke:none;" d="M491 103L492 104L491 103M127 104L128 105L127 104M276 104L276 105L279 105L276 104z"/>
<path style="fill:#62a5a3; stroke:none;" d="M433.667 104.333L434.333 104.667L433.667 104.333z"/>
<path style="fill:#66c045; stroke:none;" d="M126 105L127 106L126 105M272.667 105.333L273.333 105.667L272.667 105.333z"/>
<path style="fill:#62a5a3; stroke:none;" d="M430 105L430 106L433 106L430 105z"/>
<path style="fill:#66c045; stroke:none;" d="M490 105L491 106L490 105M125 106L126 107L125 106M266 106L266 107L269 107L266 106z"/>
<path style="fill:#62a5a3; stroke:none;" d="M428.667 106.333L429.333 106.667L428.667 106.333M442 108L445 106L442 108z"/>
<path style="fill:#66c045; stroke:none;" d="M117.667 107.333L118.333 107.667L117.667 107.333M124.333 107.667L124.667 108.333L124.333 107.667M262.667 107.333L263.333 107.667L262.667 107.333z"/>
<path style="fill:#62a5a3; stroke:none;" d="M425 107L425 108L428 108L425 107z"/>
<path style="fill:#66c045; stroke:none;" d="M489 107L490 108L489 107M120 108L121 109L120 108M257 108L257 109L260 109L257 108z"/>
<path style="fill:#62a5a3; stroke:none;" d="M423.667 108.333L424.333 108.667L423.667 108.333M440.667 108.333L441.333 108.667L440.667 108.333z"/>
<path style="fill:#66c045; stroke:none;" d="M488.333 108.667L488.667 109.333L488.333 108.667M122.667 109.333L123.333 109.667L122.667 109.333M254.667 109.333L255.333 109.667L254.667 109.333z"/>
<path style="fill:#62a5a3; stroke:none;" d="M420.667 109.333L421.333 109.667L420.667 109.333M439 109L440 110L439 109z"/>
<path style="fill:#66c045; stroke:none;" d="M248 110L248 111L251 111L248 110z"/>
<path style="fill:#62a5a3; stroke:none;" d="M418.667 110.333L419.333 110.667L418.667 110.333M437.667 110.333L438.333 110.667L437.667 110.333z"/>
<path style="fill:#66c045; stroke:none;" d="M487 110L488 111L487 110M244.667 111.333L245.333 111.667L244.667 111.333z"/>
<path style="fill:#62a5a3; stroke:none;" d="M415.667 111.333L416.333 111.667L415.667 111.333M436 111L437 112L436 111z"/>
<path style="fill:#66c045; stroke:none;" d="M107 112L108 113L107 112M239 112L239 113L242 113L239 112z"/>
<path style="fill:#62a5a3; stroke:none;" d="M413.667 112.333L414.333 112.667L413.667 112.333M434.667 112.333L435.333 112.667L434.667 112.333z"/>
<path style="fill:#66c045; stroke:none;" d="M486 112L487 113L486 112M105 113L97 127L98 127L105 113z"/>
<path style="fill:#fafcfb; stroke:none;" d="M89 147C103.274 145.834 105.574 140.765 111.781 129C113.288 126.144 117.08 121.721 116.183 118.264C115.221 114.557 108.456 112.493 105.515 114.643C100.332 118.432 97.6239 126.46 94.8611 132C92.4608 136.813 90.6642 141.894 89 147z"/>
<path style="fill:#66c045; stroke:none;" d="M109.667 113.333L110.333 113.667L109.667 113.333M235.667 113.333L236.333 113.667L235.667 113.333z"/>
<path style="fill:#62a5a3; stroke:none;" d="M411 113L412 114L411 113M432.667 113.333L433.333 113.667L432.667 113.333z"/>
<path style="fill:#66c045; stroke:none;" d="M112 114L113 115L112 114M229 114L229 115L232 115L229 114z"/>
<path style="fill:#62a5a3; stroke:none;" d="M407 114L407 115L410 115L407 114M430.667 114.333L431.333 114.667L430.667 114.333z"/>
<path style="fill:#66c045; stroke:none;" d="M485 114L486 115L485 114M113 115L113 116L116 116L113 115M224 115L224 116L227 116L224 115z"/>
<path style="fill:#62a5a3; stroke:none;" d="M405.667 115.333L406.333 115.667L405.667 115.333M429 115L430 116L429 115z"/>
<path style="fill:#66c045; stroke:none;" d="M484.333 115.667L484.667 116.333L484.333 115.667M116 116L117 117L116 116M221.667 116.333L222.333 116.667L221.667 116.333z"/>
<path style="fill:#62a5a3; stroke:none;" d="M403 116L404 117L403 116z"/>
<path style="fill:#66c045; stroke:none;" d="M404 116L405 117L404 116z"/>
<path style="fill:#62a5a3; stroke:none;" d="M427.667 116.333L428.333 116.667L427.667 116.333z"/>
<path style="fill:#66c045; stroke:none;" d="M117.333 117.667L117.667 118.333L117.333 117.667M217.667 117.333L218.333 117.667L217.667 117.333z"/>
<path style="fill:#62a5a3; stroke:none;" d="M401.667 117.333L402.333 117.667L401.667 117.333M426 117L427 118L426 117z"/>
<path style="fill:#66c045; stroke:none;" d="M483 117L484 118L483 117M211 118L211 119L215 119L211 118z"/>
<path style="fill:#62a5a3; stroke:none;" d="M398.667 118.333L399.333 118.667L398.667 118.333M424.667 118.333L425.333 118.667L424.667 118.333z"/>
<path style="fill:#66c045; stroke:none;" d="M482.333 118.667L482.667 119.333L482.333 118.667M208.667 119.333L209.333 119.667L208.667 119.333z"/>
<path style="fill:#62a5a3; stroke:none;" d="M395 119L395 120L398 120L395 119M422.667 119.333L423.333 119.667L422.667 119.333z"/>
<path style="fill:#66c045; stroke:none;" d="M116 120L117 121L116 120M202.667 120.333L203.333 120.667L202.667 120.333z"/>
<path style="fill:#62a5a3; stroke:none;" d="M393.667 120.333L394.333 120.667L393.667 120.333M420.667 120.333L421.333 120.667L420.667 120.333z"/>
<path style="fill:#66c045; stroke:none;" d="M481 120L482 121L481 120M197 121L197 122L200 122L197 121z"/>
<path style="fill:#62a5a3; stroke:none;" d="M390.667 121.333L391.333 121.667L390.667 121.333M419 121L420 122L419 121z"/>
<path style="fill:#66c045; stroke:none;" d="M480.333 121.667L480.667 122.333L480.333 121.667M115 122L116 123L115 122M194.667 122.333L195.333 122.667L194.667 122.333z"/>
<path style="fill:#62a5a3; stroke:none;" d="M387.667 122.333L388.333 122.667L387.667 122.333M417.667 122.333L418.333 122.667L417.667 122.333z"/>
<path style="fill:#66c045; stroke:none;" d="M190.667 123.333L191.333 123.667L190.667 123.333z"/>
<path style="fill:#62a5a3; stroke:none;" d="M386 123L387 124L386 123M415.667 123.333L416.333 123.667L415.667 123.333z"/>
<path style="fill:#66c045; stroke:none;" d="M479.333 123.667L479.667 124.333L479.333 123.667M114 124L115 125L114 124M184 124L184 125L187 125L184 124z"/>
<path style="fill:#62a5a3; stroke:none;" d="M383.667 124.333L384.333 124.667L383.667 124.333M414 124L415 125L414 124z"/>
<path style="fill:#66c045; stroke:none;" d="M113.333 125.667L113.667 126.333L113.333 125.667M180 125L180 126L183 126L180 125z"/>
<path style="fill:#62a5a3; stroke:none;" d="M380.667 125.333L381.333 125.667L380.667 125.333M412 125L413 126L412 125z"/>
<path style="fill:#66c045; stroke:none;" d="M478 125L479 126L478 125M175 126L175 127L178 127L175 126z"/>
<path style="fill:#62a5a3; stroke:none;" d="M377.667 126.333L378.333 126.667L377.667 126.333M410.667 126.333L411.333 126.667L410.667 126.333M478 126L479 127L478 126z"/>
<path style="fill:#66c045; stroke:none;" d="M112.333 127.667L112.667 128.333L112.333 127.667M171.667 127.333L172.333 127.667L171.667 127.333z"/>
<path style="fill:#62a5a3; stroke:none;" d="M374 127L374 128L377 128L374 127M408.667 127.333L409.333 127.667L408.667 127.333z"/>
<path style="fill:#66c045; stroke:none;" d="M477 127L478 128L477 127M96.3333 128.667L96.6667 129.333L96.3333 128.667M166 128L166 129L169 129L166 128z"/>
<path style="fill:#62a5a3; stroke:none;" d="M372 128L373 129L372 128M407 128L408 129L407 128z"/>
<path style="fill:#66c045; stroke:none;" d="M476.333 128.667L476.667 129.333L476.333 128.667M111 129L112 130L111 129M163.667 129.333L164.333 129.667L163.667 129.333z"/>
<path style="fill:#62a5a3; stroke:none;" d="M369.667 129.333L370.333 129.667L369.667 129.333M405.667 129.333L406.333 129.667L405.667 129.333z"/>
<path style="fill:#66c045; stroke:none;" d="M95 130L96 131L95 130M158.667 130.333L159.333 130.667L158.667 130.333z"/>
<path style="fill:#62a5a3; stroke:none;" d="M367.667 130.333L368.333 130.667L367.667 130.333z"/>
<path style="fill:#66c045; stroke:none;" d="M403 130L404 131L403 130z"/>
<path style="fill:#62a5a3; stroke:none;" d="M404 130L405 131L404 130z"/>
<path style="fill:#66c045; stroke:none;" d="M475 130L476 131L475 130M110 131L111 132L110 131M153 131L153 132L156 132L153 131z"/>
<path style="fill:#62a5a3; stroke:none;" d="M364 131L364 132L367 132L364 131M402 131L403 132L402 131M475 131L476 132L475 131z"/>
<path style="fill:#66c045; stroke:none;" d="M94 132L95 133L94 132M148.667 132.333L149.333 132.667L148.667 132.333z"/>
<path style="fill:#62a5a3; stroke:none;" d="M362.667 132.333L363.333 132.667L362.667 132.333M400.667 132.333L401.333 132.667L400.667 132.333z"/>
<path style="fill:#66c045; stroke:none;" d="M474 132L475 133L474 132M109 133L110 134L109 133M145.667 133.333L146.333 133.667L145.667 133.333z"/>
<path style="fill:#62a5a3; stroke:none;" d="M360.667 133.333L361.333 133.667L360.667 133.333M399 133L400 134L399 133z"/>
<path style="fill:#66c045; stroke:none;" d="M93 134L94 135L93 134M140.667 134.333L141.333 134.667L140.667 134.333z"/>
<path style="fill:#62a5a3; stroke:none;" d="M357.667 134.333L358.333 134.667L357.667 134.333M397.667 134.333L398.333 134.667L397.667 134.333z"/>
<path style="fill:#66c045; stroke:none;" d="M473 134L474 135L473 134M108.333 135.667L108.667 136.333L108.333 135.667M137.667 135.333L138.333 135.667L137.667 135.333z"/>
<path style="fill:#62a5a3; stroke:none;" d="M354.667 135.333L355.333 135.667L354.667 135.333M396 135L397 136L396 135z"/>
<path style="fill:#66c045; stroke:none;" d="M92.3333 136.667L92.6667 137.333L92.3333 136.667M132 136L132 137L135 137L132 136z"/>
<path style="fill:#62a5a3; stroke:none;" d="M352.667 136.333L353.333 136.667L352.667 136.333M394 136L395 137L394 136z"/>
<path style="fill:#66c045; stroke:none;" d="M472 136L473 137L472 136M107 137L108 138L107 137M128 137L128 138L131 138L128 137z"/>
<path style="fill:#62a5a3; stroke:none;" d="M350 137L351 138L350 137M392.667 137.333L393.333 137.667L392.667 137.333z"/>
<path style="fill:#66c045; stroke:none;" d="M471.333 137.667L471.667 138.333L471.333 137.667M91.3333 138.667L91.6667 139.333L91.3333 138.667M124.667 138.333L125.333 138.667L124.667 138.333z"/>
<path style="fill:#62a5a3; stroke:none;" d="M346.667 138.333L347.333 138.667L346.667 138.333M391 138L392 139L391 138z"/>
<path style="fill:#66c045; stroke:none;" d="M106 139L106 143L110 143L110 142L106 139M119 139L119 140L122 140L119 139z"/>
<path style="fill:#62a5a3; stroke:none;" d="M344.667 139.333L345.333 139.667L344.667 139.333M389 139L390 140L389 139z"/>
<path style="fill:#66c045; stroke:none;" d="M470 139L471 140L470 139M90 140L90 143L91 143L90 140M114 140L114 141L117 141L114 140z"/>
<path style="fill:#62a5a3; stroke:none;" d="M340 140L340 141L343 141L340 140M387.667 140.333L388.333 140.667L387.667 140.333z"/>
<path style="fill:#66c045; stroke:none;" d="M111 141L111 142L114 142L111 141z"/>
<path style="fill:#62a5a3; stroke:none;" d="M338.667 141.333L339.333 141.667L338.667 141.333M386 141L387 142L386 141z"/>
<path style="fill:#66c045; stroke:none;" d="M469 141L470 142L469 141z"/>
<path style="fill:#62a5a3; stroke:none;" d="M335 142L335 143L338 143L335 142M384.667 142.333L385.333 142.667L384.667 142.333z"/>
<path style="fill:#66c045; stroke:none;" d="M468.333 142.667L468.667 143.333L468.333 142.667z"/>
<path style="fill:#62a5a3; stroke:none;" d="M333.667 143.333L334.333 143.667L333.667 143.333M382.667 143.333L383.333 143.667L382.667 143.333z"/>
<path style="fill:#66c045; stroke:none;" d="M89.3333 144.667L89.6667 145.333L89.3333 144.667z"/>
<path style="fill:#62a5a3; stroke:none;" d="M330.667 144.333L331.333 144.667L330.667 144.333M381 144L382 145L381 144z"/>
<path style="fill:#66c045; stroke:none;" d="M467 144L468 145L467 144z"/>
<path style="fill:#62a5a3; stroke:none;" d="M328.667 145.333L329.333 145.667L328.667 145.333M379 145L380 146L379 145z"/>
<path style="fill:#66c045; stroke:none;" d="M88 146L89 147L88 146z"/>
<path style="fill:#62a5a3; stroke:none;" d="M325.667 146.333L326.333 146.667L325.667 146.333M377.667 146.333L378.333 146.667L377.667 146.333z"/>
<path style="fill:#66c045; stroke:none;" d="M466 146L467 147L466 146M86.6667 147.333L87.3333 147.667L86.6667 147.333z"/>
<path style="fill:#62a5a3; stroke:none;" d="M322.667 147.333L323.333 147.667L322.667 147.333M376 147L377 148L376 147z"/>
<path style="fill:#66c045; stroke:none;" d="M81 148L81 149L85 149L81 148z"/>
<path style="fill:#62a5a3; stroke:none;" d="M320.667 148.333L321.333 148.667L320.667 148.333z"/>
<path style="fill:#66c045; stroke:none;" d="M374 148L375 149L374 148z"/>
<path style="fill:#62a5a3; stroke:none;" d="M375 148L376 149L375 148z"/>
<path style="fill:#66c045; stroke:none;" d="M465 148L466 149L465 148M76 149L76 150L79 150L76 149z"/>
<path style="fill:#62a5a3; stroke:none;" d="M317.667 149.333L318.333 149.667L317.667 149.333M373 149L374 150L373 149z"/>
<path style="fill:#66c045; stroke:none;" d="M464 149L465 150L464 149M72.6667 150.333L73.3333 150.667L72.6667 150.333z"/>
<path style="fill:#62a5a3; stroke:none;" d="M314.667 150.333L315.333 150.667L314.667 150.333M371 150L372 151L371 150z"/>
<path style="fill:#66c045; stroke:none;" d="M69.6667 151.333L70.3333 151.667L69.6667 151.333z"/>
<path style="fill:#62a5a3; stroke:none;" d="M310 151L310 152L313 152L310 151M369 151L370 152L369 151z"/>
<path style="fill:#66c045; stroke:none;" d="M463.333 151.667L463.667 152.333L463.333 151.667M64 152L64 153L67 153L64 152z"/>
<path style="fill:#62a5a3; stroke:none;" d="M308.667 152.333L309.333 152.667L308.667 152.333M367.667 152.333L368.333 152.667L367.667 152.333z"/>
<path style="fill:#66c045; stroke:none;" d="M60 153L60 154L63 154L60 153z"/>
<path style="fill:#62a5a3; stroke:none;" d="M305.667 153.333L306.333 153.667L305.667 153.333M366 153L367 154L366 153z"/>
<path style="fill:#66c045; stroke:none;" d="M462 153L463 154L462 153M55 154L55 155L59 155L55 154z"/>
<path style="fill:#62a5a3; stroke:none;" d="M303.667 154.333L304.333 154.667L303.667 154.333M364.667 154.333L365.333 154.667L364.667 154.333z"/>
<path style="fill:#66c045; stroke:none;" d="M49 155L49 156L52 156L49 155z"/>
<path style="fill:#62a5a3; stroke:none;" d="M299 155L299 156L302 156L299 155z"/>
<path style="fill:#66c045; stroke:none;" d="M302 155L303 156L302 155z"/>
<path style="fill:#62a5a3; stroke:none;" d="M362.667 155.333L363.333 155.667L362.667 155.333z"/>
<path style="fill:#66c045; stroke:none;" d="M461 155L462 156L461 155M44 156L45 157L44 156z"/>
<path style="fill:#62a5a3; stroke:none;" d="M297 156L298 157L297 156z"/>
<path style="fill:#66c045; stroke:none;" d="M298 156L299 157L298 156z"/>
<path style="fill:#62a5a3; stroke:none;" d="M361 156L362 157L361 156z"/>
<path style="fill:#66c045; stroke:none;" d="M460.333 156.667L460.667 157.333L460.333 156.667M42 157L43 158L42 157z"/>
<path style="fill:#62a5a3; stroke:none;" d="M294.667 157.333L295.333 157.667L294.667 157.333M359 157L360 158L359 157M292.667 158.333L293.333 158.667L292.667 158.333M357.667 158.333L358.333 158.667L357.667 158.333z"/>
<path style="fill:#66c045; stroke:none;" d="M459 158L460 159L459 158M40 159L41 160L40 159z"/>
<path style="fill:#62a5a3; stroke:none;" d="M290 159L291 160L290 159M356 159L357 160L356 159M287.667 160.333L288.333 160.667L287.667 160.333M354.667 160.333L355.333 160.667L354.667 160.333z"/>
<path style="fill:#66c045; stroke:none;" d="M458 160L459 161L458 160M39 161L40 162L39 161z"/>
<path style="fill:#62a5a3; stroke:none;" d="M285.667 161.333L286.333 161.667L285.667 161.333M353 161L354 162L353 161M458 161L459 162L458 161M280 162L280 163L283 163L280 162z"/>
<path style="fill:#66c045; stroke:none;" d="M283 162L284 163L283 162z"/>
<path style="fill:#62a5a3; stroke:none;" d="M351 162L352 163L351 162z"/>
<path style="fill:#66c045; stroke:none;" d="M457 162L458 163L457 162M38 163L39 164L38 163z"/>
<path style="fill:#62a5a3; stroke:none;" d="M278.667 163.333L279.333 163.667L278.667 163.333M350 163L351 164L350 163M276.667 164.333L277.333 164.667L276.667 164.333M348.667 164.333L349.333 164.667L348.667 164.333z"/>
<path style="fill:#66c045; stroke:none;" d="M456 164L457 165L456 164M37 165L38 166L37 165z"/>
<path style="fill:#62a5a3; stroke:none;" d="M273.667 165.333L274.333 165.667L273.667 165.333M346.667 165.333L347.333 165.667L346.667 165.333z"/>
<path style="fill:#66c045; stroke:none;" d="M455 165L456 166L455 165z"/>
<path style="fill:#62a5a3; stroke:none;" d="M271.667 166.333L272.333 166.667L271.667 166.333M345 166L346 167L345 166z"/>
<path style="fill:#66c045; stroke:none;" d="M36.3333 167.667L36.6667 168.333L36.3333 167.667z"/>
<path style="fill:#62a5a3; stroke:none;" d="M268.667 167.333L269.333 167.667L268.667 167.333M343.667 167.333L344.333 167.667L343.667 167.333z"/>
<path style="fill:#66c045; stroke:none;" d="M454 167L455 168L454 167z"/>
<path style="fill:#62a5a3; stroke:none;" d="M266 168L267 169L266 168M342 168L343 169L342 168M263.667 169.333L264.333 169.667L263.667 169.333M340 169L341 170L340 169z"/>
<path style="fill:#66c045; stroke:none;" d="M453 169L454 170L453 169M35.3333 170.667L35.6667 171.333L35.3333 170.667z"/>
<path style="fill:#62a5a3; stroke:none;" d="M260.667 170.333L261.333 170.667L260.667 170.333M338.667 170.333L339.333 170.667L338.667 170.333z"/>
<path style="fill:#66c045; stroke:none;" d="M452 170L453 171L452 170z"/>
<path style="fill:#62a5a3; stroke:none;" d="M257.667 171.333L258.333 171.667L257.667 171.333M337 171L338 172L337 171M254.667 172.333L255.333 172.667L254.667 172.333M335 172L336 173L335 172z"/>
<path style="fill:#66c045; stroke:none;" d="M451 172L452 173L451 172M34.3333 173.667L34.6667 174.333L34.3333 173.667z"/>
<path style="fill:#62a5a3; stroke:none;" d="M251.667 173.333L252.333 173.667L251.667 173.333M333.667 173.333L334.333 173.667L333.667 173.333M249 174L250 175L249 174M332 174L333 175L332 174z"/>
<path style="fill:#66c045; stroke:none;" d="M450 174L451 175L450 174z"/>
<path style="fill:#62a5a3; stroke:none;" d="M246.667 175.333L247.333 175.667L246.667 175.333M330 175L331 176L330 175z"/>
<path style="fill:#66c045; stroke:none;" d="M449.333 175.667L449.667 176.333L449.333 175.667M33 176L34 177L33 176z"/>
<path style="fill:#62a5a3; stroke:none;" d="M243.667 176.333L244.333 176.667L243.667 176.333z"/>
<path style="fill:#66c045; stroke:none;" d="M245 176L246 177L245 176z"/>
<path style="fill:#62a5a3; stroke:none;" d="M328 176L329 177L328 176M240.667 177.333L241.333 177.667L240.667 177.333M326.667 177.333L327.333 177.667L326.667 177.333z"/>
<path style="fill:#66c045; stroke:none;" d="M448 177L449 178L448 177M32.3333 178.667L32.6667 179.333L32.3333 178.667z"/>
<path style="fill:#62a5a3; stroke:none;" d="M238 178L239 179L238 178M325 178L326 179L325 178z"/>
<path style="fill:#66c045; stroke:none;" d="M447.333 178.667L447.667 179.333L447.333 178.667z"/>
<path style="fill:#62a5a3; stroke:none;" d="M235.667 179.333L236.333 179.667L235.667 179.333M323.667 179.333L324.333 179.667L323.667 179.333M233.667 180.333L234.333 180.667L233.667 180.333M322 180L323 181L322 180z"/>
<path style="fill:#66c045; stroke:none;" d="M446 180L447 181L446 180M31 181L32 182L31 181z"/>
<path style="fill:#62a5a3; stroke:none;" d="M230.667 181.333L231.333 181.667L230.667 181.333M320 181L321 182L320 181z"/>
<path style="fill:#66c045; stroke:none;" d="M445.333 181.667L445.667 182.333L445.333 181.667z"/>
<path style="fill:#62a5a3; stroke:none;" d="M228 182L229 183L228 182M319 182L320 183L319 182z"/>
<path style="fill:#66c045; stroke:none;" d="M30.3333 183.667L30.6667 184.333L30.3333 183.667z"/>
<path style="fill:#62a5a3; stroke:none;" d="M225.667 183.333L226.333 183.667L225.667 183.333M317 183L318 184L317 183z"/>
<path style="fill:#66c045; stroke:none;" d="M444 183L445 184L444 183z"/>
<path style="fill:#62a5a3; stroke:none;" d="M222.667 184.333L223.333 184.667L222.667 184.333M315 184L316 185L315 184z"/>
<path style="fill:#66c045; stroke:none;" d="M443.333 184.667L443.667 185.333L443.333 184.667z"/>
<path style="fill:#62a5a3; stroke:none;" d="M220 185L221 186L220 185M314 185L315 186L314 185z"/>
<path style="fill:#66c045; stroke:none;" d="M29 186L30 187L29 186z"/>
<path style="fill:#62a5a3; stroke:none;" d="M217.667 186.333L218.333 186.667L217.667 186.333M312.667 186.333L313.333 186.667L312.667 186.333z"/>
<path style="fill:#66c045; stroke:none;" d="M442 186L443 187L442 186z"/>
<path style="fill:#62a5a3; stroke:none;" d="M214.667 187.333L215.333 187.667L214.667 187.333M311 187L312 188L311 187z"/>
<path style="fill:#66c045; stroke:none;" d="M441.333 187.667L441.667 188.333L441.333 187.667z"/>
<path style="fill:#62a5a3; stroke:none;" d="M212.667 188.333L213.333 188.667L212.667 188.333M309 188L310 189L309 188z"/>
<path style="fill:#66c045; stroke:none;" d="M28 189L29 190L28 189z"/>
<path style="fill:#62a5a3; stroke:none;" d="M209 189L210 190L209 189z"/>
<path style="fill:#66c045; stroke:none;" d="M307 189L308 190L307 189z"/>
<path style="fill:#62a5a3; stroke:none;" d="M308 189L309 190L308 189z"/>
<path style="fill:#66c045; stroke:none;" d="M440.333 189.667L440.667 190.333L440.333 189.667z"/>
<path style="fill:#62a5a3; stroke:none;" d="M206.667 190.333L207.333 190.667L206.667 190.333M306 190L307 191L306 190z"/>
<path style="fill:#66c045; stroke:none;" d="M27.3333 191.667L27.6667 192.333L27.3333 191.667z"/>
<path style="fill:#62a5a3; stroke:none;" d="M204 191L205 192L204 191M304 191L305 192L304 191z"/>
<path style="fill:#fafcfb; stroke:none;" d="M439 191C433.276 201.769 436 211.971 436 224C436 227.518 434.895 233.453 437.028 236.49C439.439 239.924 446.175 240.666 450 241C450 225.871 450.631 202.61 439 191z"/>
<path style="fill:#62a5a3; stroke:none;" d="M440 191L441 192L440 191M201.667 192.333L202.333 192.667L201.667 192.333M303 192L304 193L303 192M441.333 192.667L441.667 193.333L441.333 192.667M198.667 193.333L199.333 193.667L198.667 193.333z"/>
<path style="fill:#66c045; stroke:none;" d="M301 193L302 194L301 193z"/>
<path style="fill:#62a5a3; stroke:none;" d="M302 193L303 194L302 193z"/>
<path style="fill:#66c045; stroke:none;" d="M26.3333 194.667L26.6667 195.333L26.3333 194.667z"/>
<path style="fill:#62a5a3; stroke:none;" d="M196 194L197 195L196 194M300 194L301 195L300 194M442.333 194.667L442.667 195.333L442.333 194.667M191 195L191 196L194 196L191 195M298 195L299 196L298 195M189.667 196.333L190.333 196.667L189.667 196.333M296.667 196.333L297.333 196.667L296.667 196.333z"/>
<path style="fill:#66c045; stroke:none;" d="M443 196L443 199L444 199L443 196M25.3333 197.667L25.6667 198.333L25.3333 197.667z"/>
<path style="fill:#62a5a3; stroke:none;" d="M187.667 197.333L188.333 197.667L187.667 197.333M295 197L296 198L295 197M184.667 198.333L185.333 198.667L184.667 198.333M294 198L295 199L294 198M182 199L183 200L182 199M292.667 199.333L293.333 199.667L292.667 199.333M444 199L445 200L444 199z"/>
<path style="fill:#66c045; stroke:none;" d="M24.3333 200.667L24.6667 201.333L24.3333 200.667z"/>
<path style="fill:#62a5a3; stroke:none;" d="M179.667 200.333L180.333 200.667L179.667 200.333M291 200L292 201L291 200z"/>
<path style="fill:#66c045; stroke:none;" d="M444.333 200.667L444.667 201.333L444.333 200.667z"/>
<path style="fill:#62a5a3; stroke:none;" d="M176.667 201.333L177.333 201.667L176.667 201.333M289 201L290 202L289 201z"/>
<path style="fill:#66c045; stroke:none;" d="M433 201L434 202L433 201z"/>
<path style="fill:#62a5a3; stroke:none;" d="M445.333 201.667L445.667 202.333L445.333 201.667z"/>
<path style="fill:#66c045; stroke:none;" d="M23.3333 202.667L23.6667 203.333L23.3333 202.667z"/>
<path style="fill:#62a5a3; stroke:none;" d="M173.667 202.333L174.333 202.667L173.667 202.333z"/>
<path style="fill:#66c045; stroke:none;" d="M287 202L288 203L287 202z"/>
<path style="fill:#62a5a3; stroke:none;" d="M288 202L289 203L288 202z"/>
<path style="fill:#66c045; stroke:none;" d="M432 202L433 203L432 202M434.333 202.667L434.667 203.333L434.333 202.667z"/>
<path style="fill:#62a5a3; stroke:none;" d="M171.667 203.333L172.333 203.667L171.667 203.333M286 203L287 204L286 203z"/>
<path style="fill:#66c045; stroke:none;" d="M445.333 203.667L445.667 204.333L445.333 203.667M24 204L25 205L24 204z"/>
<path style="fill:#62a5a3; stroke:none;" d="M168.667 204.333L169.333 204.667L168.667 204.333M284 204L285 205L284 204z"/>
<path style="fill:#66c045; stroke:none;" d="M431 204L432 205L431 204z"/>
<path style="fill:#62a5a3; stroke:none;" d="M434 204L435 205L434 204z"/>
<path style="fill:#66c045; stroke:none;" d="M25 205L26 206L25 205z"/>
<path style="fill:#62a5a3; stroke:none;" d="M165.667 205.333L166.333 205.667L165.667 205.333z"/>
<path style="fill:#66c045; stroke:none;" d="M282 205L283 206L282 205z"/>
<path style="fill:#62a5a3; stroke:none;" d="M283 205L284 206L283 205z"/>
<path style="fill:#66c045; stroke:none;" d="M430 205L431 206L430 205M434 205L435 206L434 205M446 205L446 208L447 208L446 205M27.6667 206.333L28.3333 206.667L27.6667 206.333z"/>
<path style="fill:#62a5a3; stroke:none;" d="M163.667 206.333L164.333 206.667L163.667 206.333M281 206L282 207L281 206z"/>
<path style="fill:#66c045; stroke:none;" d="M435.333 206.667L435.667 207.333L435.333 206.667M29 207L30 208L29 207z"/>
<path style="fill:#62a5a3; stroke:none;" d="M160.667 207.333L161.333 207.667L160.667 207.333M279.667 207.333L280.333 207.667L279.667 207.333z"/>
<path style="fill:#66c045; stroke:none;" d="M429 207L430 208L429 207M31 208L32 209L31 208z"/>
<path style="fill:#62a5a3; stroke:none;" d="M157.667 208.333L158.333 208.667L157.667 208.333M278 208L279 209L278 208z"/>
<path style="fill:#66c045; stroke:none;" d="M428 208L429 209L428 208z"/>
<path style="fill:#62a5a3; stroke:none;" d="M435 208L435 212L436 212L435 208z"/>
<path style="fill:#66c045; stroke:none;" d="M447 208L447 211L448 211L447 208M32 209L33 210L32 209z"/>
<path style="fill:#62a5a3; stroke:none;" d="M154 209L154 210L157 210L154 209M276.667 209.333L277.333 209.667L276.667 209.333z"/>
<path style="fill:#66c045; stroke:none;" d="M427 209L428 210L427 209M34 210L35 211L34 210z"/>
<path style="fill:#62a5a3; stroke:none;" d="M152.667 210.333L153.333 210.667L152.667 210.333M275 210L276 211L275 210z"/>
<path style="fill:#66c045; stroke:none;" d="M35.6667 211.333L36.3333 211.667L35.6667 211.333z"/>
<path style="fill:#62a5a3; stroke:none;" d="M273.667 211.333L274.333 211.667L273.667 211.333z"/>
<path style="fill:#66c045; stroke:none;" d="M426 211L427 212L426 211M37 212L38 213L37 212z"/>
<path style="fill:#62a5a3; stroke:none;" d="M272 212L273 213L272 212z"/>
<path style="fill:#66c045; stroke:none;" d="M435 212L435 221L436 221L435 212M38.6667 213.333L39.3333 213.667L38.6667 213.333z"/>
<path style="fill:#62a5a3; stroke:none;" d="M270.667 213.333L271.333 213.667L270.667 213.333z"/>
<path style="fill:#66c045; stroke:none;" d="M425 213L426 214L425 213M448 213L448 216L449 216L448 213M41 214L42 215L41 214z"/>
<path style="fill:#62a5a3; stroke:none;" d="M269 214L270 215L269 214z"/>
<path style="fill:#66c045; stroke:none;" d="M424 214L425 215L424 214M42.6667 215.333L43.3333 215.667L42.6667 215.333z"/>
<path style="fill:#62a5a3; stroke:none;" d="M267 215L268 216L267 215z"/>
<path style="fill:#66c045; stroke:none;" d="M423 215L424 216L423 215M44 216L45 217L44 216z"/>
<path style="fill:#62a5a3; stroke:none;" d="M266 216L267 217L266 216z"/>
<path style="fill:#66c045; stroke:none;" d="M449 216L449 220L450 220L449 216M45.6667 217.333L46.3333 217.667L45.6667 217.333z"/>
<path style="fill:#62a5a3; stroke:none;" d="M264 217L265 218L264 217z"/>
<path style="fill:#66c045; stroke:none;" d="M422 217L423 218L422 217M47 218L48 219L47 218z"/>
<path style="fill:#62a5a3; stroke:none;" d="M263 218L264 219L263 218z"/>
<path style="fill:#66c045; stroke:none;" d="M421 218L422 219L421 218M49 219L50 220L49 219z"/>
<path style="fill:#62a5a3; stroke:none;" d="M261 219L262 220L261 219z"/>
<path style="fill:#66c045; stroke:none;" d="M51 220L52 221L51 220z"/>
<path style="fill:#62a5a3; stroke:none;" d="M259.667 220.333L260.333 220.667L259.667 220.333z"/>
<path style="fill:#66c045; stroke:none;" d="M420 220L421 221L420 220M52.6667 221.333L53.3333 221.667L52.6667 221.333z"/>
<path style="fill:#62a5a3; stroke:none;" d="M258 221L259 222L258 221z"/>
<path style="fill:#66c045; stroke:none;" d="M419 221L420 222L419 221M54 222L55 223L54 222z"/>
<path style="fill:#62a5a3; stroke:none;" d="M256 222L257 223L256 222z"/>
<path style="fill:#66c045; stroke:none;" d="M56 223L57 224L56 223z"/>
<path style="fill:#62a5a3; stroke:none;" d="M255 223L256 224L255 223z"/>
<path style="fill:#66c045; stroke:none;" d="M418 223L419 224L418 223M57 224L58 225L57 224z"/>
<path style="fill:#62a5a3; stroke:none;" d="M253 224L254 225L253 224z"/>
<path style="fill:#66c045; stroke:none;" d="M417.333 224.667L417.667 225.333L417.333 224.667M450 224L450 239L451 239L450 224M59 225L60 226L59 225z"/>
<path style="fill:#62a5a3; stroke:none;" d="M251 225L252 226L251 225z"/>
<path style="fill:#66c045; stroke:none;" d="M61 226L62 227L61 226z"/>
<path style="fill:#62a5a3; stroke:none;" d="M249 226L250 227L249 226z"/>
<path style="fill:#66c045; stroke:none;" d="M416 226L417 227L416 226z"/>
<path style="fill:#62a5a3; stroke:none;" d="M62 227L63 228L62 227z"/>
<path style="fill:#66c045; stroke:none;" d="M63 227L64 228L63 227z"/>
<path style="fill:#62a5a3; stroke:none;" d="M248 227L249 228L248 227z"/>
<path style="fill:#66c045; stroke:none;" d="M415 227L416 228L415 227M65 228L66 229L65 228z"/>
<path style="fill:#62a5a3; stroke:none;" d="M101 228L102 229L101 228M246 228L247 229L246 228z"/>
<path style="fill:#66c045; stroke:none;" d="M414 228L415 229L414 228M66 229L67 230L66 229z"/>
<path style="fill:#62a5a3; stroke:none;" d="M99 229L100 230L99 229M245 229L246 230L245 229M67 230L68 231L67 230z"/>
<path style="fill:#66c045; stroke:none;" d="M68 230L69 231L68 230z"/>
<path style="fill:#62a5a3; stroke:none;" d="M96 230L97 231L96 230M243.667 230.333L244.333 230.667L243.667 230.333z"/>
<path style="fill:#66c045; stroke:none;" d="M413 230L414 231L413 230M69.6667 231.333L70.3333 231.667L69.6667 231.333z"/>
<path style="fill:#62a5a3; stroke:none;" d="M242 231L243 232L242 231z"/>
<path style="fill:#66c045; stroke:none;" d="M71.6667 232.333L72.3333 232.667L71.6667 232.333z"/>
<path style="fill:#62a5a3; stroke:none;" d="M240 232L241 233L240 232z"/>
<path style="fill:#66c045; stroke:none;" d="M412 232L413 233L412 232M73 233L74 234L73 233z"/>
<path style="fill:#62a5a3; stroke:none;" d="M89 233L90 234L89 233M239 233L240 234L239 233z"/>
<path style="fill:#66c045; stroke:none;" d="M411 233L412 234L411 233M74.6667 234.333L75.3333 234.667L74.6667 234.333z"/>
<path style="fill:#62a5a3; stroke:none;" d="M86.6667 234.333L87.3333 234.667L86.6667 234.333M237 234L238 235L237 234z"/>
<path style="fill:#66c045; stroke:none;" d="M410 234L411 235L410 234M76 235L77 236L76 235z"/>
<path style="fill:#62a5a3; stroke:none;" d="M236 235L237 236L236 235M81 236L82 237L81 236M235 236L236 237L235 236z"/>
<path style="fill:#66c045; stroke:none;" d="M409 236L410 237L409 236M77 237L78 238L77 237z"/>
<path style="fill:#62a5a3; stroke:none;" d="M233.667 237.333L234.333 237.667L233.667 237.333z"/>
<path style="fill:#66c045; stroke:none;" d="M408 237L409 238L408 237M436 237L437 238L436 237z"/>
<path style="fill:#62a5a3; stroke:none;" d="M77 238L78 239L77 238M232 238L233 239L232 238z"/>
<path style="fill:#66c045; stroke:none;" d="M438.667 238.333L439.333 238.667L438.667 238.333z"/>
<path style="fill:#62a5a3; stroke:none;" d="M230.667 239.333L231.333 239.667L230.667 239.333z"/>
<path style="fill:#66c045; stroke:none;" d="M407 239L408 240L407 239M441.667 239.333L442.333 239.667L441.667 239.333z"/>
<path style="fill:#62a5a3; stroke:none;" d="M229 240L230 241L229 240z"/>
<path style="fill:#66c045; stroke:none;" d="M406 240L407 241L406 240M444.667 240.333L445.333 240.667L444.667 240.333z"/>
<path style="fill:#62a5a3; stroke:none;" d="M227.667 241.333L228.333 241.667L227.667 241.333z"/>
<path style="fill:#66c045; stroke:none;" d="M447 241L447 242L450 242L447 241z"/>
<path style="fill:#62a5a3; stroke:none;" d="M226 242L227 243L226 242z"/>
<path style="fill:#66c045; stroke:none;" d="M405 242L406 243L405 242z"/>
<path style="fill:#62a5a3; stroke:none;" d="M224 243L225 244L224 243z"/>
<path style="fill:#66c045; stroke:none;" d="M404 243L405 244L404 243z"/>
<path style="fill:#62a5a3; stroke:none;" d="M222.667 244.333L223.333 244.667L222.667 244.333z"/>
<path style="fill:#66c045; stroke:none;" d="M403 244L404 245L403 244z"/>
<path style="fill:#62a5a3; stroke:none;" d="M221 245L222 246L221 245z"/>
<path style="fill:#66c045; stroke:none;" d="M402 245L403 246L402 245z"/>
<path style="fill:#62a5a3; stroke:none;" d="M219 246L220 247L219 246z"/>
<path style="fill:#66c045; stroke:none;" d="M401.333 246.667L401.667 247.333L401.333 246.667z"/>
<path style="fill:#62a5a3; stroke:none;" d="M217.667 247.333L218.333 247.667L217.667 247.333M186 248L186 249L189 249L186 248M216 248L217 249L216 248z"/>
<path style="fill:#66c045; stroke:none;" d="M400 248L401 249L400 248z"/>
<path style="fill:#62a5a3; stroke:none;" d="M214.667 249.333L215.333 249.667L214.667 249.333z"/>
<path style="fill:#66c045; stroke:none;" d="M436 252L437 252L441 250L436 252z"/>
<path style="fill:#62a5a3; stroke:none;" d="M213 250L214 251L213 250z"/>
<path style="fill:#66c045; stroke:none;" d="M399 250L400 251L399 250z"/>
<path style="fill:#fafcfb; stroke:none;" d="M428 284C431.306 284.758 437.298 287.795 440.49 285.882C445.292 283.005 451.469 259.451 449.357 254.279C447.82 250.514 438.95 248.535 436.653 252.319C433.914 256.828 433.662 263.928 432.255 269C430.864 274.012 429.163 278.925 428 284z"/>
<path style="fill:#66c045; stroke:none;" d="M442 250L442 251L445 251L442 250z"/>
<path style="fill:#62a5a3; stroke:none;" d="M211.667 251.333L212.333 251.667L211.667 251.333z"/>
<path style="fill:#66c045; stroke:none;" d="M398.333 251.667L398.667 252.333L398.333 251.667M446.667 251.333L447.333 251.667L446.667 251.333z"/>
<path style="fill:#62a5a3; stroke:none;" d="M210 252L211 253L210 252z"/>
<path style="fill:#66c045; stroke:none;" d="M449 252L450 253L449 252z"/>
<path style="fill:#62a5a3; stroke:none;" d="M207 255L210 253L207 255z"/>
<path style="fill:#66c045; stroke:none;" d="M397 253L398 254L397 253M435 253L435 256L436 256L435 253M396.333 254.667L396.667 255.333L396.333 254.667z"/>
<path style="fill:#62a5a3; stroke:none;" d="M205 255L206 256L205 255M191 265L205 257C199.476 255.863 194.234 261.002 191 265z"/>
<path style="fill:#66c045; stroke:none;" d="M395 256L396 257L395 256M394 258L395 259L394 258M434 258L434 261L435 261L434 258M449 258L449 262L450 262L449 258M393 259L394 260L393 259M194 261L195 262L194 261M392 261L393 262L392 261M433 261L433 264L434 264L433 261M391 262L392 263L391 262M390 263L391 264L390 263M448 263L448 266L449 266L448 263z"/>
<path style="fill:#62a5a3; stroke:none;" d="M190 265L191 266L190 265z"/>
<path style="fill:#66c045; stroke:none;" d="M389 265L390 266L389 265M432 265L432 269L433 269L432 265z"/>
<path style="fill:#62a5a3; stroke:none;" d="M188.667 266.333L189.333 266.667L188.667 266.333z"/>
<path style="fill:#66c045; stroke:none;" d="M388.333 266.667L388.667 267.333L388.333 266.667z"/>
<path style="fill:#62a5a3; stroke:none;" d="M187 267L188 268L187 267z"/>
<path style="fill:#66c045; stroke:none;" d="M447 267L447 270L448 270L447 267z"/>
<path style="fill:#62a5a3; stroke:none;" d="M186 268L187 269L186 268z"/>
<path style="fill:#66c045; stroke:none;" d="M387 268L388 269L387 268M386 269L387 270L386 269z"/>
<path style="fill:#62a5a3; stroke:none;" d="M183 270L184 271L183 270z"/>
<path style="fill:#66c045; stroke:none;" d="M431.333 270.667L431.667 271.333L431.333 270.667M385 271L386 272L385 271M446.333 271.667L446.667 272.333L446.333 271.667M384 272L385 273L384 272z"/>
<path style="fill:#62a5a3; stroke:none;" d="M430 272L431 273L430 272z"/>
<path style="fill:#66c045; stroke:none;" d="M383.333 273.667L383.667 274.333L383.333 273.667M430.333 273.667L430.667 274.333L430.333 273.667M445 273L445 276L446 276L445 273M382 275L383 276L382 275M429 275L429 279L430 279L429 275z"/>
<path style="fill:#62a5a3; stroke:none;" d="M172 277L173 278L172 277z"/>
<path style="fill:#66c045; stroke:none;" d="M381 277L382 278L381 277M444.333 277.667L444.667 278.333L444.333 277.667z"/>
<path style="fill:#62a5a3; stroke:none;" d="M170 278L171 279L170 278z"/>
<path style="fill:#66c045; stroke:none;" d="M380 278L381 279L380 278M158 279L159 280L158 279z"/>
<path style="fill:#62a5a3; stroke:none;" d="M169 279L170 280L169 279M157 280L158 281L157 280z"/>
<path style="fill:#66c045; stroke:none;" d="M379 280L380 281L379 280M428.333 280.667L428.667 281.333L428.333 280.667M443.333 280.667L443.667 281.333L443.333 280.667M156 281L157 282L156 281M378 281L379 282L378 281M377 282L378 283L377 282M427.333 282.667L427.667 283.333L427.333 282.667M442.333 283.667L442.667 284.333L442.333 283.667M376 284L377 285L376 284M428 284L428 285L431 285L428 284M375 285L376 286L375 285M432.667 285.333L433.333 285.667L432.667 285.333z"/>
<path style="fill:#62a5a3; stroke:none;" d="M157.667 286.333L158.333 286.667L157.667 286.333z"/>
<path style="fill:#66c045; stroke:none;" d="M435 286L435 287L438 287L435 286M441 286L442 287L441 286z"/>
<path style="fill:#62a5a3; stroke:none;" d="M156 287L157 288L156 287z"/>
<path style="fill:#66c045; stroke:none;" d="M374 287L375 288L374 287M439.667 287.333L440.333 287.667L439.667 287.333M373 288L374 289L373 288z"/>
<path style="fill:#62a5a3; stroke:none;" d="M153 289L154 290L153 289z"/>
<path style="fill:#66c045; stroke:none;" d="M372 289L373 290L372 289z"/>
<path style="fill:#62a5a3; stroke:none;" d="M150 291L151 292L150 291z"/>
<path style="fill:#66c045; stroke:none;" d="M371 291L372 292L371 291z"/>
<path style="fill:#62a5a3; stroke:none;" d="M148 292L149 293L148 292z"/>
<path style="fill:#66c045; stroke:none;" d="M370.333 292.667L370.667 293.333L370.333 292.667M424 292L424 293L429 294L429 293L424 292z"/>
<path style="fill:#fafcfb; stroke:none;" d="M424 293L410 325C422.937 332.549 426.009 323.095 431.88 312C433.622 308.708 438.342 301.38 435.932 297.649C433.797 294.343 427.516 293.728 424 293z"/>
<path style="fill:#66c045; stroke:none;" d="M369 294L370 295L369 294M423.333 294.667L423.667 295.333L423.333 294.667M430 294L431 295L430 294M368 295L369 296L368 295M433.667 295.333L434.333 295.667L433.667 295.333z"/>
<path style="fill:#62a5a3; stroke:none;" d="M368 296L369 297L368 296z"/>
<path style="fill:#66c045; stroke:none;" d="M422.333 296.667L422.667 297.333L422.333 296.667M435.667 296.333L436.333 296.667L435.667 296.333M367 297L368 298L367 297M437 297L437 300L438 300L437 297M421.333 298.667L421.667 299.333L421.333 298.667M366 299L367 300L366 299M365 300L366 301L365 300z"/>
<path style="fill:#62a5a3; stroke:none;" d="M142 301L143 302L142 301z"/>
<path style="fill:#66c045; stroke:none;" d="M364 301L365 302L364 301M420 301L421 302L420 301M436.333 301.667L436.667 302.333L436.333 301.667M363 303L364 304L363 303M419 303L420 304L419 303M362.333 304.667L362.667 305.333L362.333 304.667M435.333 304.667L435.667 305.333L435.333 304.667M418.333 305.667L418.667 306.333L418.333 305.667M361 306L362 307L361 306M434.333 306.667L434.667 307.333L434.333 306.667M360 307L361 308L360 307M417.333 307.667L417.667 308.333L417.333 307.667M433 308L433 311L434 311L433 308M359 309L360 310L359 309M416.333 309.667L416.667 310.333L416.333 309.667M358 310L359 311L358 310M415.333 311.667L415.667 312.333L415.333 311.667M432 311L433 312L432 311M357 312L358 313L357 312M431.333 312.667L431.667 313.333L431.333 312.667M356 313L357 314L356 313M414.333 313.667L414.667 314.333L414.333 313.667M430 314L431 315L430 314M355 315L356 316L355 315M413.333 315.667L413.667 316.333L413.333 315.667M354 316L355 317L354 316M429 316L430 317L429 316z"/>
<path style="fill:#62a5a3; stroke:none;" d="M412 317L413 318L412 317z"/>
<path style="fill:#66c045; stroke:none;" d="M428.333 317.667L428.667 318.333L428.333 317.667M353 318L354 319L353 318M412 318L413 319L412 318M352 319L353 320L352 319M411.333 319.667L411.667 320.333L411.333 319.667M427 319L428 320L427 319M351 321L352 322L351 321M410.333 321.667L410.667 322.333L410.333 321.667M426 321L427 322L426 321M350 322L351 323L350 322M425.333 322.667L425.667 323.333L425.333 322.667M409.333 323.667L409.667 324.333L409.333 323.667M349 324L350 325L349 324M348 325L349 326L348 325M410 325L411 326L410 325M424 325L425 326L424 325M347 326L348 327L347 326M412 326L413 327L412 326M423 326L424 327L423 326M413.667 327.333L414.333 327.667L413.667 327.333M346 328L347 329L346 328M415.667 328.333L416.333 328.667L415.667 328.333M422 328L423 329L422 328M345 329L346 330L345 329M417.667 329.333L418.333 329.667L417.667 329.333M421 329L422 330L421 329z"/>
<path style="fill:#62a5a3; stroke:none;" d="M345 330L346 331L345 330z"/>
<path style="fill:#66c045; stroke:none;" d="M419.667 330.333L420.333 330.667L419.667 330.333M344 331L345 332L344 331M343 333L344 334L343 333M403 333L395 344L403 333z"/>
<path style="fill:#fafcfb; stroke:none;" d="M404.174 334.446C396.765 336.568 387.57 358.739 400.985 356.168C405.325 355.337 412.963 345.402 413.169 341.043C413.338 337.482 407.49 333.496 404.174 334.446z"/>
<path style="fill:#66c045; stroke:none;" d="M405.667 333.333L406.333 333.667L405.667 333.333M342 334L343 335L342 334M407 334L408 335L407 334M408 335L409 336L408 335M341 336L342 337L341 336M410.667 336.333L411.333 336.667L410.667 336.333M340 337L341 338L340 337M412 337L413 338L412 337M413 338L414 339L413 338M339 339L340 340L339 339M414.333 339.667L414.667 340.333L414.333 339.667M338 340L339 341L338 340M337.333 341.667L337.667 342.333L337.333 341.667M413 342L414 343L413 342M336 343L337 344L336 343M412 343L413 344L412 343M335 344L336 345L335 344M394 345L395 346L394 345M411 345L412 346L411 345M334 346L335 347L334 346M393 346L394 347L393 346M410 346L411 347L410 346M333 347L334 348L333 347M409 347L410 348L409 347M392 348L392 352L393 352L392 348M332 349L333 350L332 349M408 349L409 350L408 349M407 350L408 351L407 350M331 351L332 352L331 351M406 351L407 352L406 351M330 352L331 353L330 352M393 352L394 353L393 352M329 353L330 354L329 353M394 353L395 354L394 353M405 353L406 354L405 353M395 354L396 355L395 354M404 354L405 355L404 354M328 355L329 356L328 355M396 355L397 356L396 355M403 355L404 356L403 355M398 356L399 357L398 356M402 356L403 357L402 356M327 357L328 358L327 357M369 370C380.401 363.441 381.877 356.572 394 365C385.539 353.097 376.498 360.708 369 370M399 357L399 358L402 358L399 357M326 358L327 359L326 358z"/>
<path style="fill:#fafcfb; stroke:none;" d="M360 376L366 388C374.718 384.387 385.911 376.391 391.508 368.714C394.504 364.604 389.506 358.862 385 358.752C378.236 358.586 365.777 372.07 360 376z"/>
<path style="fill:#66c045; stroke:none;" d="M325 359L326 360L325 359M324 361L325 362L324 361z"/>
<path style="fill:#62a5a3; stroke:none;" d="M378 361L379 362L378 361z"/>
<path style="fill:#66c045; stroke:none;" d="M323 362L324 363L323 362M322 364L323 365L322 364M321 365L322 366L321 365z"/>
<path style="fill:#62a5a3; stroke:none;" d="M122 366L123 367L122 366z"/>
<path style="fill:#66c045; stroke:none;" d="M393.333 366.667L393.667 367.333L393.333 366.667M320 367L321 368L320 367z"/>
<path style="fill:#62a5a3; stroke:none;" d="M121 368L121 371L122 371L121 368z"/>
<path style="fill:#66c045; stroke:none;" d="M319 368L320 369L319 368M392 368L393 369L392 368M391 369L392 370L391 369M318 370L319 371L318 370M367 370L368 371L367 370M389 370L390 371L389 370z"/>
<path style="fill:#62a5a3; stroke:none;" d="M120 371L119 377L120 377L120 371z"/>
<path style="fill:#66c045; stroke:none;" d="M317 371L318 372L317 371M366 371L367 372L366 371M388 371L389 372L388 371M316 372L317 373L316 372M364.667 372.333L365.333 372.667L364.667 372.333M387 372L388 373L387 372M363 373L364 374L363 373M386 373L387 374L386 373M315 374L316 375L315 374z"/>
<path style="fill:#62a5a3; stroke:none;" d="M361 374L362 375L361 374z"/>
<path style="fill:#66c045; stroke:none;" d="M362 374L363 375L362 374M385 374L386 375L385 374M314 375L315 376L314 375M360 375L361 376L360 375M383 375L384 376L383 375M359 376L360 377L359 376M382 376L383 377L382 376z"/>
<path style="fill:#62a5a3; stroke:none;" d="M118 377L118 380L119 380L118 377z"/>
<path style="fill:#66c045; stroke:none;" d="M313 377L314 378L313 377z"/>
<path style="fill:#62a5a3; stroke:none;" d="M359 377L360 378L359 377z"/>
<path style="fill:#66c045; stroke:none;" d="M381 377L382 378L381 377M312.333 378.667L312.667 379.333L312.333 378.667M360 378L361 379L360 378M380 378L381 379L380 378M117 379L118 380L117 379M119 379L119 380L137 380L119 379M379 379L380 380L379 379z"/>
<path style="fill:#62a5a3; stroke:none;" d="M139 380L140 381L139 380z"/>
<path style="fill:#66c045; stroke:none;" d="M140 380L141 381L140 380z"/>
<path style="fill:#62a5a3; stroke:none;" d="M141.667 380.333L142.333 380.667L141.667 380.333z"/>
<path style="fill:#66c045; stroke:none;" d="M143 380L144 381L143 380z"/>
<path style="fill:#62a5a3; stroke:none;" d="M144 380L144 381L148 381L144 380z"/>
<path style="fill:#66c045; stroke:none;" d="M148 380L148 381L152 381L148 380z"/>
<path style="fill:#62a5a3; stroke:none;" d="M152 380L153 381L152 380z"/>
<path style="fill:#66c045; stroke:none;" d="M153 380L153 381L164 381L153 380M311 380L312 381L311 380M361 380L362 381L361 380M378 380L379 381L378 380M170.667 381.333L171.333 381.667L170.667 381.333z"/>
<path style="fill:#62a5a3; stroke:none;" d="M174 381L174 382L181 382L174 381z"/>
<path style="fill:#66c045; stroke:none;" d="M181 381L181 382L189 382L181 381z"/>
<path style="fill:#62a5a3; stroke:none;" d="M189 381L189 382L194 382L189 381z"/>
<path style="fill:#66c045; stroke:none;" d="M194.667 381.333L195.333 381.667L194.667 381.333M310 381L311 382L310 381M362 381L363 382L362 381M377 381L378 382L377 381M196.667 382.333L197.333 382.667L196.667 382.333M376 382L377 383L376 382z"/>
<path style="fill:#62a5a3; stroke:none;" d="M197 383L198 384L197 383z"/>
<path style="fill:#66c045; stroke:none;" d="M309 383L310 384L309 383M347 383L348 384L347 383z"/>
<path style="fill:#fafcfb; stroke:none;" d="M323 409L357 395C352.488 381.619 346.062 385.149 336 389.575C332.294 391.205 326.323 392.792 324.028 396.39C321.958 399.635 323 405.308 323 409z"/>
<path style="fill:#66c045; stroke:none;" d="M349 383L350 384L349 383M363 383L364 384L363 383M374 383L375 384L374 383M198 384L199 385L198 384M308 384L309 385L308 384M345 384L346 385L345 384M350 384L351 385L350 384M372.667 384.333L373.333 384.667L372.667 384.333M343 385L344 386L343 385M351 385L352 386L351 385M364 385L365 386L364 385M370.667 385.333L371.333 385.667L370.667 385.333z"/>
<path style="fill:#62a5a3; stroke:none;" d="M199 386L200 387L199 386z"/>
<path style="fill:#66c045; stroke:none;" d="M307 386L308 387L307 386M341.667 386.333L342.333 386.667L341.667 386.333M365.333 386.667L365.667 387.333L365.333 386.667M369 386L370 387L369 386M200 387L201 388L200 387M306 387L307 388L306 387M340 387L341 388L340 387M352 387L353 388L352 387M368 387L369 388L368 387M337.667 388.333L338.333 388.667L337.667 388.333M353 388L354 389L353 388M366 388L367 389L366 388M201 389L202 390L201 389M305 389L306 390L305 389M335.667 389.333L336.333 389.667L335.667 389.333M354 389L355 390L354 389M202 390L203 391L202 390M304 390L305 391L304 390M333 390L334 391L333 390M355 390L356 391L355 390M203.333 391.667L203.667 392.333L203.333 391.667M303 391L304 392L303 391M330.667 391.333L331.333 391.667L330.667 391.333M356.333 391.667L356.667 392.333L356.333 391.667z"/>
<path style="fill:#62a5a3; stroke:none;" d="M303 392L304 393L303 392z"/>
<path style="fill:#66c045; stroke:none;" d="M328.667 392.333L329.333 392.667L328.667 392.333M302 393L303 394L302 393M326.667 393.333L327.333 393.667L326.667 393.333M204 394L205 395L204 394M325 394L326 395L325 394M357 394L358 395L357 394M205 395L206 396L205 395M301 395L302 396L301 395M323 395L324 396L323 395M356 395L357 396L356 395M300 396L301 397L300 396M322 396L322 409L323 409L322 396M353.667 396.333L354.333 396.667L353.667 396.333z"/>
<path style="fill:#62a5a3; stroke:none;" d="M206 397L207 398L206 397M300 397L301 398L300 397z"/>
<path style="fill:#66c045; stroke:none;" d="M351.667 397.333L352.333 397.667L351.667 397.333M207 398L208 399L207 398M299 398L300 399L299 398M350 398L351 399L350 398M308 399L306 400L306 401L308 399z"/>
<path style="fill:#62a5a3; stroke:none;" d="M309 399L310 400L309 399z"/>
<path style="fill:#66c045; stroke:none;" d="M347.667 399.333L348.333 399.667L347.667 399.333M208 400L209 401L208 400M298 400L299 401L298 400z"/>
<path style="fill:#62a5a3; stroke:none;" d="M305 400L306 401L305 400z"/>
<path style="fill:#fafcfb; stroke:none;" d="M290 415L310 412L310 400C300.398 401.987 293.657 405.355 290 415z"/>
<path style="fill:#66c045; stroke:none;" d="M310 400L310 412L311 412L310 400M344.667 400.333L345.333 400.667L344.667 400.333M209.333 401.667L209.667 402.333L209.333 401.667M297 401L298 402L297 401z"/>
<path style="fill:#62a5a3; stroke:none;" d="M302 401L303 402L302 401z"/>
<path style="fill:#66c045; stroke:none;" d="M303 401L304 402L303 401M343 401L344 402L343 401z"/>
<path style="fill:#62a5a3; stroke:none;" d="M297 402L297 404L299 402L297 402z"/>
<path style="fill:#66c045; stroke:none;" d="M299.667 402.333L300.333 402.667L299.667 402.333M340.667 402.333L341.333 402.667L340.667 402.333M210 403L211 404L210 403M296.333 403.667L296.667 404.333L296.333 403.667M337.667 403.333L338.333 403.667L337.667 403.333M335 404L336 405L335 404z"/>
<path style="fill:#62a5a3; stroke:none;" d="M336 404L337 405L336 404z"/>
<path style="fill:#66c045; stroke:none;" d="M211 405L212 406L211 405M333.667 405.333L334.333 405.667L333.667 405.333M212 406L213 407L212 406M330.667 406.333L331.333 406.667L330.667 406.333M213.333 407.667L213.667 408.333L213.333 407.667M327 407L327 408L330 408L327 407M325 408L326 409L325 408M214 409L215 410L214 409M215.333 411.667L215.667 412.333L215.333 411.667M291 411L292 412L291 411M307.667 412.333L308.333 412.667L307.667 412.333z"/>
<path style="fill:#62a5a3; stroke:none;" d="M309 412L310 413L309 412z"/>
<path style="fill:#66c045; stroke:none;" d="M216 413L217 414L216 413M301 413L301 414L304 414L301 413M217 414L218 415L217 414M289 414L290 415L289 414M291 414L291 415L296 415L291 414M299 414L300 415L299 414z"/>
<path style="fill:#62a5a3; stroke:none;" d="M217 415L218 416L217 415z"/>
<path style="fill:#66c045; stroke:none;" d="M288 415L289 416L288 415M218 416L219 417L218 416M287 417L288 418L287 417M219 418L220 419L219 418M286 418L287 419L286 418M220 419L221 420L220 419M285.333 419.667L285.667 420.333L285.333 419.667M221.333 420.667L221.667 421.333L221.333 420.667M284 421L285 422L284 421M222 423L223 424L222 423M283 423L284 424L283 423M223 424L224 425L223 424z"/>
<path style="fill:#62a5a3; stroke:none;" d="M223 425L224 426L223 425z"/>
<path style="fill:#66c045; stroke:none;" d="M282 425L283 426L282 425M224 426L225 427L224 426M281 427L282 428L281 427M225 428L226 429L225 428M280 428L281 429L280 428M279.333 429.667L279.667 430.333L279.333 429.667M226 430L227 431L226 430M227 431L228 432L227 431M278 431L279 432L278 431z"/>
<path style="fill:#62a5a3; stroke:none;" d="M227 432L228 433L227 432z"/>
<path style="fill:#66c045; stroke:none;" d="M228 433L229 434L228 433M277 433L278 434L277 433M229.333 434.667L229.667 435.333L229.333 434.667M276.333 434.667L276.667 435.333L276.333 434.667M230.333 436.667L230.667 437.333L230.333 436.667M275.333 436.667L275.667 437.333L275.333 436.667z"/>
<path style="fill:#62a5a3; stroke:none;" d="M230 438L231 439L230 438z"/>
<path style="fill:#66c045; stroke:none;" d="M274 438L275 439L274 438M273.333 439.667L273.667 440.333L273.333 439.667M231.333 440.667L231.667 441.333L231.333 440.667M272 441L273 442L272 441M232 442L233 443L232 442M233 443L234 444L233 443M271 443L272 444L271 443M234 444L235 445L234 444M270 444L271 445L270 444M235 445L236 446L235 445M269 445L270 446L269 445M237 446L237 447L269 447L237 446z"/>
</svg>
